PathFileType	4	(X/Y/Z)	1_coords_data.trc
DataRate	CameraRate	NumFrames	NumMarkers	Units	OrigDataRate	OrigDataStartFrame	OrigNumFrames
30.0	30.0	7	21	m	30.0	52	62
Frame#	Time	THUMB_TIP	THUMB_IP	THUMB_MCP	THUMB_CMC	INDEX_TIP	INDEX_DIP	INDEX_PIP	INDEX_MCP	MIDDLE_TIP	MIDDLE_DIP	MIDDLE_PIP	MIDDLE_MCP	RING_TIP	RING_DIP	RING_PIP	RING_MCP	PINKY_TIP	PINKY_DIP	PINKY_PIP	PINKY_MCP	WRIST
X1	Y1	Z1	X2	Y2	Z2	X3	Y3	Z3	X4	Y4	Z4	X5	Y5	Z5	X6	Y6	Z6	X7	Y7	Z7	X8	Y8	Z8	X9	Y9	Z9	X10	Y10	Z10	X11	Y11	Z11	X12	Y12	Z12	X13	Y13	Z13	X14	Y14	Z14	X15	Y15	Z15	X16	Y16	Z16	X17	Y17	Z17	X18	Y18	Z18	X19	Y19	Z19	X20	Y20	Z20	X21	Y21	Z21
51	1.7	0.01023110008239746	-0.050120601654052736	0.957093017578125	-0.003908159971237182	-0.038625801086425784	0.9762960205078125	-0.019695999145507813	-0.029158300399780273	0.9992490234375	-0.025206899642944335	-0.001107499957084655	1.0166799926757812	0.011853099822998047	-0.007985420227050781	0.8956380004882812	-0.006509860038757324	-0.007033939838409424	0.90677197265625	-0.022837699890136717	-0.006380099773406983	0.9224650268554687	-0.03253630065917969	-0.004804780006408691	0.95775	0.008370140075683593	0.028253799438476564	0.8779650268554687	-0.006730249881744385	0.027437999725341798	0.8960479736328125	-0.023003999710083007	0.024743900299072266	0.9185339965820313	-0.03277930068969727	0.018755300521850586	0.9564000244140625	0.016100099563598633	0.044293701171875	0.8951309814453124	0.001206769943237304	0.04529690170288086	0.9110419921875	-0.014854100227355957	0.04454980087280273	0.9304000244140626	-0.024317699432373045	0.03697760009765625	0.9617100219726562	0.032331798553466795	0.06997119903564453	0.9400969848632813	0.017381099700927733	0.06574310302734375	0.9500969848632812	0.0035959699153900143	0.06067169952392578	0.9594990234375	-0.013791399955749512	0.050486099243164065	0.9749450073242187	-0.04385509872436524	0.02548889923095703	1.03181005859375
52	1.7333333333333334	0.012033900260925294	-0.04979719924926758	0.9565339965820312	-0.0027046298980712893	-0.03888460159301758	0.9757839965820313	-0.01869770050048828	-0.029710500717163087	0.9986209716796876	-0.02452960014343262	-0.0018159300088882442	1.0161300048828126	0.013281399726867676	-0.008393460273742676	0.8955260009765625	-0.005270669937133789	-0.007516819953918457	0.9064310302734375	-0.021791000366210938	-0.0069697098731994625	0.9218579711914062	-0.03177370071411133	-0.005390250205993653	0.957030029296875	0.008841159820556641	0.027888999938964844	0.8772930297851562	-0.006266079902648926	0.027058599472045898	0.8954530029296875	-0.02227680015563965	0.024126399993896486	0.9178790283203125	-0.03171549987792969	0.01794499969482422	0.955166015625	0.01698200035095215	0.04386349868774414	0.8947100219726563	0.002026870012283325	0.04478889846801758	0.9106019897460937	-0.014024299621582031	0.043952701568603515	0.9299860229492187	-0.023481000900268556	0.0362843017578125	0.9612100219726563	0.03429679870605469	0.06829080200195313	0.9406279907226562	0.01892959976196289	0.06443900299072265	0.9504329833984375	0.004975339889526367	0.05960110092163086	0.9595050048828125	-0.012893600463867188	0.04977209854125977	0.9745130004882813	-0.0431864013671875	0.024700599670410155	1.0312900390625
53	1.7666666666666666	0.013539199829101562	-0.049895599365234376	0.9558079833984375	-0.001405060052871704	-0.03916429901123047	0.975031982421875	-0.01755690002441406	-0.030221399307250978	0.9977780151367187	-0.023395200729370118	-0.002413860082626342	1.0150700073242187	0.01473390007019043	-0.008398139953613281	0.8948579711914062	-0.0038104300498962404	-0.007564239978790284	0.9056380004882812	-0.02046699905395508	-0.007073279857635498	0.92102099609375	-0.03064579963684082	-0.005707560062408447	0.95622802734375	0.00944674015045166	0.028164400100708007	0.8763510131835938	-0.005551350116729736	0.027164600372314454	0.8944669799804688	-0.021287099838256836	0.02409000015258789	0.9170910034179688	-0.030646499633789064	0.01762879943847656	0.9545020141601562	0.018361000061035155	0.043845001220703124	0.89410302734375	0.003243240118026733	0.044845901489257815	0.9099749755859375	-0.012699399948120117	0.04386780166625977	0.9294769897460937	-0.022249099731445312	0.03594039916992187	0.9605479736328125	0.03585469818115234	0.06761990356445312	0.9404600219726562	0.020394800186157226	0.06382799911499024	0.9501669921875	0.00630964994430542	0.05911539840698242	0.9591370239257813	-0.011860899925231934	0.049375701904296875	0.9739420166015625	-0.04234600067138672	0.024153200149536133	1.0305
54	1.8	0.01391469955444336	-0.05058599853515625	0.9546190185546874	-0.000752690970897674	-0.03965800094604492	0.97393798828125	-0.016767499923706054	-0.03054859924316406	0.9967260131835938	-0.02265220069885254	-0.002560790061950683	1.014260009765625	0.015557299613952637	-0.009037779808044434	0.8938839721679688	-0.002924560070037842	-0.008085020065307617	0.9046950073242187	-0.01950830078125	-0.007490079879760742	0.9200059814453125	-0.029772600173950194	-0.005941770076751709	0.9554030151367188	0.010580800056457519	0.02748509979248047	0.8753099975585937	-0.004382009983062744	0.02655540084838867	0.8933930053710938	-0.020149999618530274	0.02368079948425293	0.9159669799804687	-0.02953499984741211	0.01736750030517578	0.9535040283203124	0.020229400634765624	0.04302489852905273	0.893468017578125	0.004982110023498535	0.044127601623535156	0.9091119995117187	-0.011277999877929688	0.04337070083618164	0.9283179931640625	-0.021031600952148437	0.035596500396728514	0.9595260009765625	0.0372681999206543	0.0668478012084961	0.939802978515625	0.02191909980773926	0.06319329833984375	0.949239013671875	0.007691549777984619	0.05862889862060547	0.95802099609375	-0.010616999626159668	0.049039398193359375	0.9728569946289063	-0.04133060073852539	0.024043899536132812	1.0294599609375
55	1.8333333333333333	0.014873200416564942	-0.05062919998168945	0.9533380126953125	0.000177580997347831	-0.03971720123291016	0.972593994140625	-0.01588599967956543	-0.030592199325561523	0.9953989868164063	-0.021730100631713867	-0.002664170026779175	1.013	0.016982500076293944	-0.009151920318603516	0.892864013671875	-0.0015545799732208253	-0.008123410224914552	0.9035770263671875	-0.018212200164794922	-0.007480430126190185	0.9188109741210938	-0.028515399932861327	-0.005984590053558349	0.9536890258789062	0.012889800071716308	0.02729129981994629	0.8747059936523438	-0.002407700061798095	0.026336700439453124	0.8925040283203125	-0.018493900299072264	0.023568199157714843	0.9148389892578125	-0.028436100006103516	0.017344600677490236	0.9522080078125	0.02182040023803711	0.042728199005126956	0.8924089965820312	0.006423940181732177	0.04380830001831055	0.9080269775390625	-0.009824230194091796	0.043237499237060543	0.9270819702148437	-0.020023899078369142	0.0355817985534668	0.95831201171875	0.03866159820556641	0.06652690124511719	0.9388619995117188	0.023223199844360352	0.06300740051269531	0.9481129760742187	0.008695899963378906	0.05846220016479492	0.9568800048828126	-0.009655059814453125	0.04899599838256836	0.9716790161132812	-0.04035089874267578	0.02380620002746582	1.02806005859375
56	1.8666666666666667	0.015552599906921387	-0.050346298217773436	0.9515659790039063	0.0008910970091819761	-0.039393699645996094	0.9709190063476563	-0.015226400375366211	-0.03029520034790039	0.99389599609375	-0.020869800567626953	-0.0023718099594116212	1.01147998046875	0.018459400177001952	-0.008587969779968261	0.89172900390625	-0.00023137499392032602	-0.007536230087280274	0.9022490234375	-0.01705999946594238	-0.006936349868774414	0.9174920043945313	-0.027666999816894532	-0.005483290195465088	0.9525659790039063	0.014420299530029297	0.027744400024414063	0.8734320068359375	-0.0009450719952583311	0.02686989974975586	0.8911840209960937	-0.017267900466918944	0.02410650062561035	0.9134710083007812	-0.027597400665283205	0.017916500091552736	0.9514299926757812	0.02303140068054199	0.04316770172119141	0.8911939697265625	0.007493500232696533	0.044242198944091794	0.9066160278320312	-0.008638270378112793	0.043716800689697265	0.9259030151367188	-0.01888199996948242	0.035954601287841795	0.9569010009765625	0.039733001708984375	0.06689640045166016	0.9375369873046875	0.024168100357055664	0.06336100006103515	0.9468660278320312	0.00975512981414795	0.05888999938964844	0.955447998046875	-0.008627610206604004	0.04934130096435547	0.9703980102539063	-0.039483600616455075	0.024045700073242186	1.02656005859375
57	1.9	0.015680899620056154	-0.04946839904785156	0.949447998046875	0.001351019978523254	-0.03867549896240234	0.9688610229492187	-0.014717599868774415	-0.029587200164794922	0.992072998046875	-0.02023830032348633	-0.0018481299877166739	1.00977001953125	0.01872979927062988	-0.007631649971008301	0.8899910278320312	4.912570118904101e-05	-0.00655709981918335	0.900541015625	-0.016790800094604492	-0.005908559799194336	0.915822998046875	-0.027042200088500976	-0.0046806402206420895	0.9505989990234375	0.015284799575805664	0.028740299224853515	0.8721170043945312	-0.000217096000909805	0.027877099990844728	0.8897680053710938	-0.01656209945678711	0.025049999237060548	0.9119019775390625	-0.026921899795532226	0.01880509948730469	0.949583984375	0.023732900619506836	0.04396879959106445	0.8898920288085937	0.008289369583129882	0.04514559936523437	0.90518701171875	-0.007974199771881104	0.04463850021362305	0.9244390258789063	-0.01834410095214844	0.03681240081787109	0.9555599975585938	0.040396900177001954	0.06761849975585937	0.9358150024414063	0.024861400604248046	0.06414830017089844	0.9451530151367188	0.010433199882507325	0.05964910125732422	0.9539219970703126	-0.007856319904327393	0.05002970123291016	0.9690830078125	-0.038622100830078124	0.024580799102783202	1.0248900146484374
